<svg width="27" height="27" viewBox="0 0 27 27" fill="none" xmlns="http://www.w3.org/2000/svg">
<g clip-path="url(#clip0_11_43)">
<path d="M25.6999 21.3C25.6999 21.8835 25.4682 22.443 25.0556 22.8556C24.643 23.2682 24.0834 23.5 23.4999 23.5H3.69994C3.11646 23.5 2.55688 23.2682 2.1443 22.8556C1.73172 22.443 1.49994 21.8835 1.49994 21.3V9.19998C1.49994 8.6165 1.73172 8.05693 2.1443 7.64435C2.55688 7.23177 3.11646 6.99998 3.69994 6.99998H8.09994L10.2999 3.69998H16.8999L19.0999 6.99998H23.4999C24.0834 6.99998 24.643 7.23177 25.0556 7.64435C25.4682 8.05693 25.6999 8.6165 25.6999 9.19998V21.3Z" stroke="#3B3835" stroke-width="2" stroke-linecap="round" stroke-linejoin="round"/>
<path d="M13.6 19.1C16.03 19.1 18 17.13 18 14.7C18 12.2699 16.03 10.3 13.6 10.3C11.1699 10.3 9.19995 12.2699 9.19995 14.7C9.19995 17.13 11.1699 19.1 13.6 19.1Z" stroke="#3B3835" stroke-width="2" stroke-linecap="round" stroke-linejoin="round"/>
</g>
<defs>
<clipPath id="clip0_11_43">
<rect width="26.4" height="26.4" fill="white" transform="translate(0.399963 0.399994)"/>
</clipPath>
</defs>
</svg>
